<svg xmlns="http://www.w3.org/2000/svg" width="110" height="33" fill="#f5e02f" xmlns:v="https://vecta.io/nano"><path d="M18.325 2.841c.525 2.034-.669 4.116-2.667 4.65a3.66 3.66 0 0 1-2.324-.141l-5.916 4.955a3.86 3.86 0 0 1 .058.912l8.216 4.07a3.71 3.71 0 0 1 1.769-1.068c1.998-.534 4.043.681 4.567 2.715s-.669 4.116-2.667 4.65a3.67 3.67 0 0 1-1.487.087l-6.914 5.791c-.11 1.582-1.191 2.987-2.781 3.413-1.998.534-4.042-.681-4.567-2.715s.669-4.116 2.667-4.65a3.68 3.68 0 0 1 3.247.678l5.52-4.623a3.87 3.87 0 0 1-.252-.695l-.047-.206-8.992-4.454a3.69 3.69 0 0 1-1.064.473c-1.998.534-4.042-.681-4.567-2.715s.669-4.116 2.667-4.65a3.66 3.66 0 0 1 2.558.245l5.738-4.805c-.512-2.028.68-4.098 2.672-4.631 1.998-.534 4.043.681 4.567 2.715zm17.3 22.6c1.446.433 3.015.65 4.705.65 1.731 0 3.228-.268 4.491-.804 1.283-.557 2.271-1.33 2.964-2.32s1.039-2.135 1.039-3.434c0-1.547-.499-2.784-1.497-3.713-.978-.928-2.475-1.609-4.491-2.042l-3.33-.712c-1.181-.247-2.017-.588-2.505-1.021-.489-.454-.733-1.052-.733-1.794 0-.969.397-1.753 1.192-2.351s1.894-.897 3.3-.897c2.424 0 4.481.722 6.172 2.166l1.192-2.97c-.855-.804-1.925-1.423-3.208-1.856-1.283-.454-2.658-.681-4.125-.681-1.65 0-3.106.278-4.369.835s-2.251 1.341-2.964 2.351-1.069 2.197-1.069 3.558c0 3.156 1.915 5.146 5.744 5.971l3.361.712c1.263.268 2.149.608 2.658 1.021.53.413.794.98.794 1.702 0 .866-.367 1.578-1.1 2.135-.733.536-1.904.804-3.514.804-1.405 0-2.709-.196-3.911-.588a11.98 11.98 0 0 1-3.269-1.671l-1.192 3.125c.998.763 2.22 1.372 3.666 1.825zM51.814 3.97v21.811h3.819v-8.508c0-1.176.326-2.114.978-2.815.672-.722 1.568-1.083 2.689-1.083.917 0 1.589.268 2.017.804.448.536.672 1.392.672 2.568v9.034h3.819v-9.219c0-4.146-1.762-6.219-5.286-6.219-1.039 0-1.986.217-2.842.65a4.83 4.83 0 0 0-2.047 1.856V3.97h-3.819z"/><path fill-rule="evenodd" d="M72.681 25.132c1.222.639 2.678.959 4.369.959 1.08 0 2.159-.175 3.239-.526s1.976-.825 2.689-1.423l-1.069-2.599c-.693.557-1.456.969-2.291 1.238a8.78 8.78 0 0 1-2.505.371c-2.77 0-4.298-1.351-4.583-4.053h10.694v-1.145c0-2.351-.621-4.207-1.864-5.569-1.222-1.361-2.892-2.042-5.011-2.042-1.446 0-2.74.34-3.88 1.021-1.12.66-2.006 1.578-2.658 2.753-.631 1.176-.947 2.547-.947 4.115 0 1.609.326 3.001.978 4.177.672 1.176 1.619 2.083 2.841 2.723zm1.1-11.107c.693-.701 1.599-1.052 2.719-1.052 1.08 0 1.915.34 2.505 1.021.611.66.957 1.619 1.039 2.877h-7.516c.142-1.196.56-2.145 1.253-2.846z"/><path d="M87.499 24.637c.855.969 2.169 1.454 3.941 1.454.733 0 1.467-.093 2.2-.278l.061-3.063a3.22 3.22 0 0 1-.642.124l-.672.031c-1.548 0-2.322-.928-2.322-2.784V3.97h-3.819v16.335c0 1.898.418 3.341 1.253 4.331zm9.214-11.076v12.22h3.819v-12.22h4.064v-2.908h-4.064v-.65c0-1.031.255-1.805.764-2.32.51-.536 1.375-.846 2.597-.928l1.406-.093-.245-2.846-1.497.093c-2.342.144-4.073.763-5.194 1.856-1.1 1.093-1.65 2.712-1.65 4.857v.031h-2.872v2.908h2.872zm9.01 7.92v4.3H110v-4.3h-4.277z"/></svg>